<?xml version="1.0" encoding="UTF-8"?>
<svg id="Layer_1" data-name="Layer 1" xmlns="http://www.w3.org/2000/svg" viewBox="0 0 257.31 279.67">
  <defs>
    <style>
      .cls-1 {
        fill: #4e6d41;
      }
    </style>
  </defs>
  <g id="Pw035R">
    <g>
      <path class="cls-1" d="M96.24,139.68c-20.83,5.7-41.83,7.77-63.37,8.41,7.76-9.86,15.82-18.57,24.28-27.29,5.01-5.17,10.01-9.89,15.32-14.72,16.23-14.25,34.03-25.45,55.1-31.01,16.82-4.01,35.63.27,50.48,8.54-2.34,7.04-5.39,13.37-9.7,19.04-2.95,3.88-6.28,6.98-10.52,9.38-18.7,12.55-39.95,21.08-61.6,27.65Z"/>
      <path class="cls-1" d="M209.33,75.26c1.09,7.32-.16,20.19-2.9,26.85l-9.24-7.3-15.24-11.74.99-4.22c1.64-6.97-5.47-11.06-11.02-12.92-4.93-1.65-9.85-1.98-15.07-1.95l-19.31.14c-7.72.06-14.58-2.8-20.14-8.11-2.8-2.68-5.09-5.54-6.33-9.37-1.85-5.7-2.77-11.77-1.92-17.85,1.75-12.55,10.45-22.86,22.21-27.23,7.39-2.03,15.02-2.18,22.31.19,4.56,1.48,8.66,3.6,12.98,5.5l-2.44,17-13.32-.98c-3.55-.26-6.99-.38-10.42.32-4.34.8-7.35,4.01-7.91,8.34-.33,2.53-.04,5.22,1.83,7.11,1.45,1.48,3.48,2.2,5.54,2.61,10.75,2.15,21.37.71,32.37,1.32,6.02.33,11.63,2.14,16.96,4.89,3.25,1.68,6.25,3.37,8.92,5.95,5.86,5.67,9.91,13.12,11.15,21.46ZM154.47,8.9c-2.02.72-2.8,2.83-1.97,4.64.69,1.51,2.49,2.41,4.26,1.72,1.64-.63,2.61-2.46,2.02-4.23-.56-1.67-2.39-2.81-4.31-2.13Z"/>
      <path class="cls-1" d="M126.07,271.25c-1.16.49-2.48.22-3.86.14v-100.16c-10.36,2.36-20.45,3.72-30.85,3.84l-16.85.2c-7.38.11-14.55-.18-21.75-1.05l24.99-4c20.39-3.26,49.67-16.06,66.12-29.55,17.09-14.02,29.88-34.3,36.88-54.72l24.57,19.19c-2.69,6.64-6,12.66-9.73,18.58-2.04,3.55-4.35,6.5-7.16,9.52-9.58,10.1-20.47,18.68-32.72,25.4-6.6,3.63-13.43,6.39-20.68,8.93v103.76c-1.2.33-2.39.17-3.86.09l-.02-102.42c-1.85.2-3.26.78-5.09,1.31v100.95Z"/>
      <path class="cls-1" d="M63.27,169.38l14.95-22.42c11.33-1.91,22.06-4.93,32.8-8.75,17.62-6.26,33.11-13.33,48.7-23.58,2.17-1.43,4.1-2.72,6.13-4.4-11.26,18.5-25.23,31.46-44.55,41.35-18.2,9.29-37.25,15.26-58.02,17.8Z"/>
      <path class="cls-1" d="M.2,279.66c-.33-1.2-.16-2.51-.14-3.87h257.1c.11,1.27.26,2.28,0,3.88"/>
      <path class="cls-1" d="M67.59,59.02c7.24-18.95,20.79-34.47,38.64-44.55-7.73,1.53-14.6,4.55-21.5,7.83-11.95,5.67-22.86,12.51-33.99,19.77C63.16,24.05,85.24,8.6,106.27,4.14c6.01-1.3,11.95-2.13,17.86-2.68-9.07,5.73-14.73,13.11-17.53,23.46-13.99,8.06-26.25,18.78-36.57,31.17-.82.98-1.3,2-2.44,2.93Z"/>
      <path class="cls-1" d="M86.75,232.92c-13.7-10.24-32.37-20.7-48.53-25.99,8.08.46,15.54,2.58,22.98,5.59,14.31,5.79,33.81,18.97,42.58,31.59l9.47,13.63c-4.43-10.94-10.29-20.86-17.08-30.27-4.16-5.77-8.69-10.79-13.78-15.75-10.42-10.15-21.41-19.41-32.82-28.3,1.61.4,2.77,1.18,4.26,2.02,14.46,8.12,27.38,18.54,38.76,30.63,11.68,12.41,18.49,24.31,24.52,40.19l.03,15.38c-7.18-12.86-18.72-29.99-30.39-38.72Z"/>
      <path class="cls-1" d="M219.33,206.93c-15.55,4.95-29.79,13.08-43.43,22.14-6.01,3.99-11.18,8.47-15.94,13.92-7.71,8.81-14.05,18.47-19.74,28.62l.18-15.19c3.5-10.82,8.97-21.13,15.87-30.28,12.35-16.38,32.87-33.85,51.49-42.79-9.97,7.92-19.52,15.84-28.78,24.5-7.86,7.34-14.97,15.02-20.92,24.02-5.43,8.21-10.24,16.56-14.1,26.01,2.15-2.46,3.58-5.4,5.55-8.2,4.54-6.46,9.28-12.49,15.31-17.63,14.8-12.6,34.67-23.98,54.51-25.1Z"/>
      <path class="cls-1" d="M213.29,26.95l-45.84-2.46,2.45-15.8,46.21,18.4c-1.05.42-1.75-.4-2.82-.14Z"/>
      <polygon class="cls-1" points="11.91 176.19 24.9 158.39 30.28 151.31 41.31 151.06 26.14 174.48 11.91 176.19"/>
      <polygon class="cls-1" points="42.58 172.25 30.1 173.93 45.13 150.76 57.23 149.79 42.58 172.25"/>
      <polygon class="cls-1" points="59.21 170.02 46.56 171.74 61.02 149.46 74.01 147.73 59.21 170.02"/>
    </g>
  </g>
</svg>